<svg width="142" height="132" viewBox="0 0 142 132" fill="none" xmlns="http://www.w3.org/2000/svg">
<path d="M112.304 42.0869H98.5216L90.5651 33.3912H60.1304V46.4347H47.0869V59.4782H34.0435V102.956C34.0435 107.739 37.9565 111.652 42.7392 111.652H112.304C117.087 111.652 121 107.739 121 102.956V50.7824C121 46 117.087 42.0869 112.304 42.0869ZM77.5216 98.6086C65.5216 98.6086 55.7825 88.8694 55.7825 76.8694C55.7825 64.8694 65.5216 55.1304 77.5216 55.1304C89.5216 55.1304 99.2608 64.8696 99.2608 76.8696C99.2608 88.8696 89.5216 98.6086 77.5216 98.6086Z" fill="#A5A5A5"/>
<path d="M34.0435 55.1304H42.7392V42.0869H55.7827V33.3912H42.7392V20.3477H34.0435V33.3912H21V42.0869H34.0435V55.1304Z" fill="#A5A5A5"/>
<path d="M77.5217 62.9565C69.826 62.9565 63.6086 69.1739 63.6086 76.8696C63.6086 84.5652 69.826 90.7827 77.5217 90.7827C85.2173 90.7827 91.4348 84.5652 91.4348 76.8696C91.4348 69.1739 85.2173 62.9565 77.5217 62.9565Z" fill="#A5A5A5"/>
<rect x="1.5" y="1.5" width="139" height="129" rx="5.5" stroke="#A5A5A5" stroke-width="3"/>
</svg>
