<svg width="30" height="30" viewBox="0 0 30 30" fill="none" xmlns="http://www.w3.org/2000/svg">
<path d="M12.5022 1.81091H17.5161V2.65457H19.3268V1.69281C19.327 0.75943 18.5681 0 17.6351 0H12.3832C11.4503 0 10.6913 0.75943 10.6913 1.69281V2.65457H12.5022V1.81091Z" fill="black"/>
<path d="M23.5084 9.8291H6.50986C6.04409 9.8291 5.67742 10.2264 5.71496 10.6908L7.13608 28.2635C7.21528 29.2445 8.03353 30 9.01657 30H21.0015C21.9845 30 22.8028 29.2445 22.882 28.2632L24.3031 10.6908C24.3409 10.2264 23.9742 9.8291 23.5084 9.8291ZM10.6258 28.1257C10.6068 28.1268 10.5878 28.1275 10.5691 28.1275C10.0944 28.1275 9.69589 27.7579 9.66637 27.2777L8.77579 12.8515C8.74512 12.3523 9.12483 11.9227 9.6238 11.892C10.1212 11.8618 10.5526 12.2406 10.5833 12.74L11.4736 27.1662C11.5045 27.6654 11.1248 28.0948 10.6258 28.1257ZM15.9247 27.2221C15.9247 27.7219 15.5193 28.1273 15.0192 28.1273C14.5191 28.1273 14.1138 27.7219 14.1138 27.2221V12.7956C14.1138 12.2955 14.5191 11.8902 15.0192 11.8902C15.5191 11.8902 15.9247 12.2955 15.9247 12.7956V27.2221ZM21.2425 12.849L20.3922 27.2752C20.3641 27.7563 19.9649 28.1273 19.4893 28.1273C19.4714 28.1273 19.4533 28.1268 19.4353 28.1259C18.9361 28.0964 18.5552 27.6679 18.5847 27.1687L19.4348 12.7423C19.4641 12.2431 19.8912 11.8623 20.3918 11.8918C20.8909 11.9211 21.2718 12.3498 21.2425 12.849Z" fill="black"/>
<path d="M26.6396 7.03488L26.0449 5.25235C25.8881 4.78246 25.4482 4.46545 24.9527 4.46545H5.06538C4.57008 4.46545 4.12994 4.78246 3.97339 5.25235L3.37875 7.03488C3.26408 7.37866 3.41331 7.72931 3.69186 7.90417C3.80539 7.97536 3.93974 8.01816 4.08737 8.01816H25.9309C26.0786 8.01816 26.2132 7.97536 26.3265 7.90395C26.605 7.72908 26.7542 7.37843 26.6396 7.03488Z" fill="black"/>
</svg>
