<svg width="160" height="47" viewBox="0 0 160 47" fill="none" xmlns="http://www.w3.org/2000/svg">
<path d="M160 17.5L159.275 16.775C157.952 15.4517 157.559 13.4794 158.276 11.7504L158.668 10.8031L157.721 10.4107C155.992 9.69445 154.874 8.02252 154.874 6.15105V5.12565H153.849C151.978 5.12565 150.306 4.00846 149.589 2.27951L149.197 1.33212L148.25 1.7245C146.521 2.44077 144.548 2.04846 143.225 0.725088L142.5 0L136.348 17.5L142.5 35L143.225 34.2749C144.548 32.9516 146.521 32.5593 148.25 33.2755L149.197 33.6679L149.589 32.7205C150.306 30.9915 151.977 29.8743 153.849 29.8743H154.874V28.849C154.874 26.9775 155.992 25.3055 157.72 24.5893L158.668 24.1968L158.275 23.2495C157.559 21.5206 157.952 19.5483 159.275 18.225L160 17.5Z" fill="#FF835D"/>
<path d="M141.775 0.725088C140.452 2.04846 138.479 2.44077 136.75 1.7245L135.803 1.33212L135.411 2.27951C134.694 4.00846 133.023 5.12565 131.151 5.12565H130.126V6.15105C130.126 8.02252 129.008 9.69452 127.28 10.4107L126.332 10.8032L126.725 11.7505C127.441 13.4794 127.048 15.4517 125.725 16.775L125 17.5L125.725 18.225C127.048 19.5483 127.441 21.5206 126.724 23.2496L126.332 24.1969L127.279 24.5893C129.008 25.3055 130.126 26.9775 130.126 28.849V29.8743H131.151C133.022 29.8743 134.694 30.9915 135.411 32.7205L135.803 33.6679L136.75 33.2755C138.479 32.5593 140.452 32.9516 141.775 34.2749L142.5 35V0L141.775 0.725088Z" fill="#FC9F63"/>
<path d="M142.5 6.15222L136.826 17.4999L142.5 28.8475C148.767 28.8475 153.848 23.767 153.848 17.4999C153.848 11.2328 148.767 6.15222 142.5 6.15222Z" fill="#F9BB69"/>
<path d="M131.152 17.4999C131.152 23.767 136.233 28.8475 142.5 28.8475V6.15222C136.233 6.15222 131.152 11.2327 131.152 17.4999Z" fill="#F6D76F"/>
<path d="M142.5 10.2538L138.877 17.4999L142.5 24.746C146.502 24.746 149.746 21.5018 149.746 17.4999C149.746 13.498 146.502 10.2538 142.5 10.2538Z" fill="#FC9F63"/>
<path d="M135.254 17.4999C135.254 21.5018 138.498 24.746 142.5 24.746V10.2538C138.498 10.2538 135.254 13.4979 135.254 17.4999Z" fill="#F9BB69"/>
<path d="M14.9414 29.2139C14.9414 30.2588 14.7461 31.167 14.3555 31.9385C13.9746 32.71 13.4375 33.3496 12.7441 33.8574C12.0508 34.3555 11.2256 34.7266 10.2686 34.9707C9.31152 35.2148 8.2666 35.3369 7.13379 35.3369C6.12793 35.3369 5.15625 35.2783 4.21875 35.1611C3.28125 35.0439 2.35352 34.8486 1.43555 34.5752V31.0156C1.88477 31.1719 2.35352 31.3184 2.8418 31.4551C3.33008 31.5918 3.81836 31.7139 4.30664 31.8213C4.80469 31.9189 5.29785 31.9971 5.78613 32.0557C6.27441 32.1143 6.74805 32.1436 7.20703 32.1436C7.89062 32.1436 8.47168 32.085 8.9502 31.9678C9.42871 31.8506 9.81934 31.6895 10.1221 31.4844C10.4248 31.2793 10.6445 31.0352 10.7812 30.752C10.918 30.4688 10.9863 30.1562 10.9863 29.8145C10.9863 29.3457 10.8496 28.9551 10.5762 28.6426C10.3125 28.3203 9.96094 28.0371 9.52148 27.793C9.08203 27.5488 8.5791 27.3291 8.0127 27.1338C7.45605 26.9385 6.88477 26.7285 6.29883 26.5039C5.72266 26.2793 5.15137 26.0254 4.58496 25.7422C4.02832 25.459 3.53027 25.1074 3.09082 24.6875C2.65137 24.2676 2.29492 23.7695 2.02148 23.1934C1.75781 22.6074 1.62598 21.9043 1.62598 21.084C1.62598 20.332 1.7627 19.6191 2.03613 18.9453C2.30957 18.2715 2.73926 17.6855 3.3252 17.1875C3.91113 16.6797 4.66309 16.2793 5.58105 15.9863C6.49902 15.6836 7.60742 15.5322 8.90625 15.5322C9.28711 15.5322 9.68262 15.5518 10.0928 15.5908C10.5127 15.6201 10.9229 15.6641 11.3232 15.7227C11.7334 15.7715 12.124 15.835 12.4951 15.9131C12.876 15.9814 13.2227 16.0547 13.5352 16.1328V19.4287C13.2227 19.3115 12.8809 19.2041 12.5098 19.1064C12.1387 19.0088 11.7529 18.9258 11.3525 18.8574C10.9619 18.7793 10.5664 18.7207 10.166 18.6816C9.76562 18.6426 9.38477 18.623 9.02344 18.623C8.38867 18.623 7.85156 18.6768 7.41211 18.7842C6.97266 18.8818 6.61133 19.0234 6.32812 19.209C6.04492 19.3848 5.83984 19.6045 5.71289 19.8682C5.58594 20.1318 5.52246 20.4248 5.52246 20.7471C5.52246 21.1475 5.6543 21.4941 5.91797 21.7871C6.19141 22.0703 6.54785 22.3291 6.9873 22.5635C7.43652 22.7881 7.93945 23.0029 8.49609 23.208C9.0625 23.4033 9.63867 23.6182 10.2246 23.8525C10.8203 24.0771 11.3965 24.3359 11.9531 24.6289C12.5195 24.9219 13.0225 25.2783 13.4619 25.6982C13.9111 26.1182 14.2676 26.6162 14.5312 27.1924C14.8047 27.7588 14.9414 28.4326 14.9414 29.2139ZM35.5336 27.4414C35.5336 28.6133 35.3676 29.6875 35.0355 30.6641C34.7035 31.6309 34.225 32.4609 33.6 33.1543C32.975 33.8477 32.2084 34.3848 31.3002 34.7656C30.392 35.1465 29.3568 35.3369 28.1947 35.3369C27.0912 35.3369 26.1049 35.1758 25.2357 34.8535C24.3666 34.5312 23.6293 34.0527 23.0238 33.418C22.4184 32.7734 21.9545 31.9727 21.6322 31.0156C21.31 30.0488 21.1488 28.9258 21.1488 27.6465C21.1488 26.4648 21.3148 25.3906 21.6469 24.4238C21.9887 23.457 22.4721 22.6318 23.0971 21.9482C23.7318 21.2646 24.5033 20.7373 25.4115 20.3662C26.3197 19.9854 27.3451 19.7949 28.4877 19.7949C29.601 19.7949 30.5922 19.9609 31.4613 20.293C32.3305 20.6152 33.0678 21.0986 33.6732 21.7432C34.2787 22.3877 34.7377 23.1885 35.0502 24.1455C35.3725 25.0928 35.5336 26.1914 35.5336 27.4414ZM31.8129 27.5293C31.8129 25.9863 31.5199 24.8291 30.934 24.0576C30.3578 23.2764 29.5033 22.8857 28.3705 22.8857C27.7455 22.8857 27.2133 23.0078 26.7738 23.252C26.3344 23.4961 25.973 23.833 25.6898 24.2627C25.4066 24.6826 25.1967 25.1758 25.06 25.7422C24.933 26.3086 24.8695 26.9141 24.8695 27.5586C24.8695 29.1113 25.182 30.2832 25.807 31.0742C26.432 31.8555 27.2865 32.2461 28.3705 32.2461C28.9662 32.2461 29.4838 32.1289 29.9232 31.8945C30.3627 31.6504 30.7191 31.3184 30.9926 30.8984C31.266 30.4688 31.4711 29.9658 31.6078 29.3896C31.7445 28.8135 31.8129 28.1934 31.8129 27.5293ZM47.0291 17.085H42.825V14.3018H50.6912V32.2168H54.9832V35H42.3123V32.2168H47.0291V17.085ZM71.6496 35L71.5617 33.0518C71.2492 33.3838 70.9221 33.6914 70.5803 33.9746C70.2385 34.248 69.8625 34.4873 69.4523 34.6924C69.0422 34.8975 68.593 35.0537 68.1047 35.1611C67.6262 35.2783 67.0988 35.3369 66.5227 35.3369C65.7609 35.3369 65.092 35.2246 64.5158 35C63.9396 34.7754 63.4562 34.4629 63.0656 34.0625C62.675 33.6621 62.3771 33.1787 62.1721 32.6123C61.9768 32.0459 61.8791 31.4209 61.8791 30.7373C61.8791 30.0342 62.0256 29.3848 62.3186 28.7891C62.6213 28.1934 63.0754 27.6807 63.6809 27.251C64.2961 26.8213 65.0578 26.4844 65.966 26.2402C66.884 25.9961 67.9582 25.874 69.1887 25.874H71.1369V24.9805C71.1369 24.5996 71.0832 24.2578 70.9758 23.9551C70.8684 23.6426 70.6926 23.3789 70.4484 23.1641C70.2141 22.9492 69.9064 22.7832 69.5256 22.666C69.1447 22.5488 68.676 22.4902 68.1193 22.4902C67.2404 22.4902 66.3713 22.5928 65.5119 22.7979C64.6623 22.9932 63.8371 23.2715 63.0363 23.6328V20.7764C63.7492 20.4932 64.5695 20.2588 65.4973 20.0732C66.4348 19.8877 67.4064 19.7949 68.4123 19.7949C69.5158 19.7949 70.4631 19.9023 71.2541 20.1172C72.0451 20.3223 72.6945 20.6348 73.2023 21.0547C73.7199 21.4746 74.1008 22.002 74.3449 22.6367C74.5891 23.2617 74.7111 23.9941 74.7111 24.834V35H71.6496ZM71.1369 28.4229H68.9543C68.3488 28.4229 67.8361 28.4814 67.4162 28.5986C66.9963 28.7158 66.6545 28.877 66.3908 29.082C66.1271 29.2871 65.9318 29.5264 65.8049 29.7998C65.6877 30.0635 65.6291 30.3467 65.6291 30.6494C65.6291 31.2549 65.8244 31.7188 66.215 32.041C66.6057 32.3535 67.1379 32.5098 67.8117 32.5098C68.3098 32.5098 68.8273 32.3291 69.3645 31.9678C69.9016 31.6064 70.4924 31.0889 71.1369 30.415V28.4229ZM91.9928 25.9033C92.0123 25.3467 91.983 24.873 91.9049 24.4824C91.8365 24.0918 91.7193 23.7695 91.5533 23.5156C91.3971 23.2617 91.2018 23.0762 90.9674 22.959C90.733 22.8418 90.4645 22.7832 90.1617 22.7832C89.6344 22.7832 89.0875 23.0029 88.5211 23.4424C87.9645 23.8721 87.3492 24.585 86.6754 25.5811V35H83.0133V20.1172H86.2506L86.3824 22.2852C86.6266 21.9043 86.9 21.5625 87.2027 21.2598C87.5152 20.957 87.857 20.6982 88.2281 20.4834C88.609 20.2588 89.0289 20.0879 89.4879 19.9707C89.9469 19.8535 90.4498 19.7949 90.9967 19.7949C91.7486 19.7949 92.4127 19.9268 92.9889 20.1904C93.5748 20.4443 94.0631 20.8252 94.4537 21.333C94.8541 21.8408 95.1471 22.4805 95.3326 23.252C95.5279 24.0137 95.6109 24.8975 95.5816 25.9033H91.9928ZM111.311 35L106.184 23.5742L105.129 21.1133V29.0527V35H101.848V15.8545H106.271L111.501 27.3535L112.424 29.5947V21.1426V15.8545H115.705V35H111.311ZM135.565 26.416C135.565 26.6602 135.555 26.9775 135.536 27.3682C135.526 27.7588 135.506 28.125 135.477 28.4668H125.692C125.692 29.1211 125.789 29.6973 125.985 30.1953C126.19 30.6934 126.473 31.1133 126.834 31.4551C127.205 31.7871 127.645 32.041 128.153 32.2168C128.67 32.3926 129.242 32.4805 129.867 32.4805C130.589 32.4805 131.361 32.4268 132.181 32.3193C133.011 32.2021 133.871 32.0166 134.759 31.7627V34.6045C134.378 34.7119 133.963 34.8096 133.514 34.8975C133.065 34.9854 132.606 35.0635 132.137 35.1318C131.668 35.2002 131.195 35.249 130.716 35.2783C130.238 35.3174 129.774 35.3369 129.325 35.3369C128.192 35.3369 127.176 35.1758 126.278 34.8535C125.379 34.5312 124.618 34.0576 123.993 33.4326C123.368 32.7979 122.889 32.0166 122.557 31.0889C122.225 30.1611 122.059 29.0869 122.059 27.8662C122.059 26.6553 122.225 25.5566 122.557 24.5703C122.889 23.5742 123.358 22.7246 123.963 22.0215C124.569 21.3086 125.301 20.7617 126.161 20.3809C127.03 19.9902 127.996 19.7949 129.061 19.7949C130.116 19.7949 131.048 19.9609 131.859 20.293C132.669 20.6152 133.348 21.0693 133.895 21.6553C134.442 22.2412 134.857 22.9395 135.14 23.75C135.423 24.5605 135.565 25.4492 135.565 26.416ZM131.932 25.9033C131.942 25.3174 131.869 24.8096 131.712 24.3799C131.556 23.9404 131.341 23.5791 131.068 23.2959C130.804 23.0127 130.492 22.8027 130.13 22.666C129.779 22.5293 129.398 22.4609 128.988 22.4609C128.089 22.4609 127.352 22.7637 126.776 23.3691C126.2 23.9648 125.858 24.8096 125.75 25.9033H131.932ZM154.971 34.8535C154.326 35 153.677 35.1172 153.022 35.2051C152.368 35.293 151.748 35.3369 151.162 35.3369C150.185 35.3369 149.341 35.2344 148.628 35.0293C147.925 34.8242 147.339 34.5117 146.87 34.0918C146.411 33.6719 146.069 33.1396 145.845 32.4951C145.63 31.8408 145.522 31.0645 145.522 30.166V22.9004H141.523V20.1172H145.522V16.3086L149.184 15.3564V20.1172H154.971V22.9004H149.184V29.9023C149.184 30.752 149.38 31.3965 149.77 31.8359C150.161 32.2656 150.815 32.4805 151.733 32.4805C152.319 32.4805 152.89 32.4316 153.447 32.334C154.004 32.2363 154.512 32.124 154.971 31.9971V34.8535Z" fill="black"/>
</svg>
