<svg width="40" height="40" viewBox="0 0 40 40" fill="none" xmlns="http://www.w3.org/2000/svg">
<path d="M5.88828 18.4392L23.6888 0.639019C24.1005 0.22699 24.6501 0 25.2361 0C25.8221 0 26.3717 0.22699 26.7834 0.639019L28.0943 1.94958C28.9473 2.80355 28.9473 4.19151 28.0943 5.04419L13.1468 19.9917L28.1109 34.9558C28.5226 35.3678 28.7499 35.9171 28.7499 36.5028C28.7499 37.0891 28.5226 37.6384 28.1109 38.0508L26.8 39.361C26.3879 39.773 25.8387 40 25.2527 40C24.6667 40 24.1171 39.773 23.7054 39.361L5.88828 21.5445C5.4756 21.1312 5.24893 20.5793 5.25023 19.9927C5.24893 19.4037 5.4756 18.8522 5.88828 18.4392Z" fill="white"/>
</svg>
