<svg width="20" height="15" viewBox="0 0 20 15" fill="none" xmlns="http://www.w3.org/2000/svg">
<rect width="20" height="15" transform="matrix(-1 0 0 1 20 0)" fill="white"/>
<path d="M5.94414 6.9147L14.8444 0.239632C15.0502 0.0851213 15.325 0 15.618 0C15.911 0 16.1858 0.0851213 16.3917 0.239632L17.0471 0.731092C17.4736 1.05133 17.4736 1.57182 17.0471 1.89157L9.57338 7.49689L17.0554 13.1084C17.2613 13.2629 17.3749 13.4689 17.3749 13.6885C17.3749 13.9084 17.2613 14.1144 17.0554 14.269L16.4 14.7604C16.194 14.9149 15.9193 15 15.6263 15C15.3333 15 15.0585 14.9149 14.8527 14.7604L5.94414 8.0792C5.7378 7.9242 5.62446 7.71725 5.62512 7.49726C5.62446 7.2764 5.7378 7.06958 5.94414 6.9147Z" fill="black"/>
</svg>
