<svg width="20" height="15" viewBox="0 0 20 15" fill="none" xmlns="http://www.w3.org/2000/svg">
<rect width="20" height="15" fill="white"/>
<path d="M14.0559 6.9147L5.15561 0.239632C4.94976 0.0851213 4.67496 0 4.38196 0C4.08895 0 3.81416 0.0851213 3.60831 0.239632L2.95286 0.731092C2.52636 1.05133 2.52636 1.57182 2.95286 1.89157L10.4266 7.49689L2.94457 13.1084C2.73872 13.2629 2.62506 13.4689 2.62506 13.6885C2.62506 13.9084 2.73872 14.1144 2.94457 14.269L3.60001 14.7604C3.80603 14.9149 4.08066 15 4.37367 15C4.66667 15 4.94147 14.9149 5.14732 14.7604L14.0559 8.0792C14.2622 7.9242 14.3755 7.71725 14.3749 7.49726C14.3755 7.2764 14.2622 7.06958 14.0559 6.9147Z" fill="black"/>
</svg>
