<svg width="40" height="40" viewBox="0 0 40 40" fill="none" xmlns="http://www.w3.org/2000/svg">
<path d="M28.1118 18.4392L10.3112 0.639019C9.89955 0.22699 9.34996 0 8.76395 0C8.17793 0 7.62834 0.22699 7.21664 0.639019L5.90576 1.94958C5.05276 2.80355 5.05276 4.19151 5.90576 5.04419L20.8533 19.9917L5.88917 34.9558C5.47747 35.3678 5.25015 35.9171 5.25015 36.5028C5.25015 37.0891 5.47747 37.6384 5.88917 38.0508L7.20006 39.361C7.61208 39.773 8.16135 40 8.74736 40C9.33337 40 9.88296 39.773 10.2947 39.361L28.1118 21.5445C28.5244 21.1312 28.7511 20.5793 28.7498 19.9927C28.7511 19.4037 28.5244 18.8522 28.1118 18.4392Z" fill="white"/>
</svg>
