<svg width="512" height="512" viewBox="0 0 512 512" fill="none" xmlns="http://www.w3.org/2000/svg">
<g clip-path="url(#clip0)">
<path d="M74.5251 481.409H38.2463L63.8998 455.755C77.7319 441.923 86.3695 423.932 88.6917 404.416C52.5973 380.729 26.2035 349.566 12.0749 313.827C-2.04371 278.115 -3.81793 238.803 6.94458 200.139C19.858 153.746 50.1459 111.46 92.2272 81.0699C137.956 48.0471 194.883 30.5914 256.856 30.5914C334.924 30.5914 400.727 53.0211 447.148 95.454C488.968 133.682 512 185.247 512 240.65C512 267.567 506.519 293.757 495.71 318.494C484.525 344.092 468.147 366.884 447.029 386.236C400.546 428.836 334.784 451.354 256.855 451.354C227.925 451.354 197.737 447.492 170.786 440.405C145.274 466.576 110.705 481.409 74.5251 481.409V481.409ZM256.856 60.6459C132.591 60.6459 56.3421 134.753 35.8981 208.198C16.579 277.604 45.0577 343.186 112.079 383.631L119.568 388.151L119.337 396.893C118.88 414.199 114.755 430.867 107.371 445.934C125.352 439.85 141.669 428.82 154.446 413.725L160.799 406.218L170.222 409.036C196.662 416.945 227.429 421.3 256.856 421.3C411.508 421.3 481.946 327.657 481.946 240.65C481.946 193.789 462.386 150.102 426.87 117.637C386.083 80.3536 327.292 60.6459 256.856 60.6459V60.6459Z" fill="#A5A5A5"/>
</g>
<defs>
<clipPath id="clip0">
<rect width="512" height="512" fill="white"/>
</clipPath>
</defs>
</svg>
