<svg width="35" height="35" viewBox="0 0 35 35" fill="none" xmlns="http://www.w3.org/2000/svg">
<path d="M35 17.5L34.275 16.775C32.9517 15.4517 32.5594 13.4794 33.2756 11.7504L33.6679 10.8031L32.7206 10.4107C30.9916 9.69445 29.8744 8.02252 29.8744 6.15105V5.12565H28.849C26.9775 5.12565 25.3056 4.00846 24.5894 2.27951L24.197 1.33212L23.2497 1.7245C21.5208 2.44077 19.5485 2.04846 18.2251 0.725088L17.5 0L11.3477 17.5L17.5 35L18.225 34.2749C19.5485 32.9516 21.5206 32.5593 23.2496 33.2755L24.197 33.6679L24.5893 32.7205C25.3055 30.9915 26.9775 29.8743 28.8489 29.8743H29.8743V28.849C29.8743 26.9775 30.9915 25.3055 32.7205 24.5893L33.6679 24.1968L33.2755 23.2495C32.5593 21.5206 32.9517 19.5483 34.2749 18.225L35 17.5Z" fill="#FF835D"/>
<path d="M16.775 0.725088C15.4515 2.04846 13.4794 2.44077 11.7504 1.7245L10.803 1.33212L10.4107 2.27951C9.69445 4.00846 8.02252 5.12565 6.15111 5.12565H5.12572V6.15105C5.12565 8.02252 4.00846 9.69452 2.27951 10.4107L1.33212 10.8032L1.7245 11.7505C2.4407 13.4794 2.04832 15.4517 0.725088 16.775L0 17.5L0.72502 18.225C2.04832 19.5483 2.44063 21.5206 1.72443 23.2496L1.33205 24.1969L2.27944 24.5893C4.00839 25.3055 5.12559 26.9775 5.12559 28.849V29.8743H6.15098C8.02245 29.8743 9.69439 30.9915 10.4106 32.7205L10.803 33.6679L11.7503 33.2755C13.4792 32.5593 15.4516 32.9516 16.7749 34.2749L17.5 35V0L16.775 0.725088Z" fill="#FC9F63"/>
<path d="M17.5 6.15222L11.8262 17.4999L17.5 28.8475C23.7671 28.8475 28.8477 23.767 28.8477 17.4999C28.8477 11.2328 23.7671 6.15222 17.5 6.15222Z" fill="#F9BB69"/>
<path d="M6.15234 17.4999C6.15234 23.767 11.2329 28.8475 17.5 28.8475V6.15222C11.2329 6.15222 6.15234 11.2327 6.15234 17.4999Z" fill="#F6D76F"/>
<path d="M17.5 10.2538L13.877 17.4999L17.5 24.746C21.5019 24.746 24.7461 21.5018 24.7461 17.4999C24.7461 13.498 21.5019 10.2538 17.5 10.2538Z" fill="#FC9F63"/>
<path d="M10.2539 17.4999C10.2539 21.5018 13.4981 24.746 17.5 24.746V10.2538C13.4981 10.2538 10.2539 13.4979 10.2539 17.4999Z" fill="#F9BB69"/>
</svg>
