<svg width="20" height="20" viewBox="0 0 20 20" fill="none" xmlns="http://www.w3.org/2000/svg">
<path d="M20 2.36769C19.2563 2.76923 18.4637 3.03538 17.6375 3.16462C18.4875 2.54 19.1363 1.55846 19.4412 0.375385C18.6488 0.956923 17.7738 1.36769 16.8412 1.59692C16.0887 0.610769 15.0162 0 13.8462 0C11.5763 0 9.74875 2.26769 9.74875 5.04769C9.74875 5.44769 9.77625 5.83231 9.84375 6.19846C6.435 5.99385 3.41875 3.98308 1.3925 0.92C1.03875 1.67538 0.83125 2.54 0.83125 3.47077C0.83125 5.21846 1.5625 6.76769 2.6525 7.66462C1.99375 7.64923 1.3475 7.41385 0.8 7.04308C0.8 7.05846 0.8 7.07846 0.8 7.09846C0.8 9.55077 2.22125 11.5877 4.085 12.0569C3.75125 12.1692 3.3875 12.2231 3.01 12.2231C2.7475 12.2231 2.4825 12.2046 2.23375 12.1369C2.765 14.1354 4.2725 15.6046 6.065 15.6523C4.67 16.9954 2.89875 17.8046 0.98125 17.8046C0.645 17.8046 0.3225 17.7862 0 17.7354C1.81625 19.1769 3.96875 20 6.29 20C13.835 20 17.96 12.3077 17.96 5.64C17.96 5.41692 17.9538 5.20154 17.945 4.98769C18.7588 4.27692 19.4425 3.38923 20 2.36769Z" fill="black"/>
</svg>
